<svg width="30" height="30" viewBox="0 0 30 30" fill="none" xmlns="http://www.w3.org/2000/svg">
<path fill-rule="evenodd" clip-rule="evenodd" d="M26.9049 12.1911C26.1061 7.27432 21.9298 3.61652 16.9507 3.47253C16.714 3.46325 16.4832 3.54849 16.3094 3.70945C16.1356 3.87042 16.0329 4.0939 16.0239 4.33066V4.33066V4.41075L16.5846 12.7975C16.6213 13.362 17.1067 13.7912 17.6715 13.7586L26.0811 13.1979C26.3181 13.1804 26.5383 13.0691 26.6929 12.8887C26.8475 12.7083 26.9239 12.4737 26.9049 12.2368V12.1911Z" stroke="#2285DF" stroke-width="1.5" stroke-linecap="round" stroke-linejoin="round"/>
<path d="M11.127 8.4611C11.662 8.33736 12.2094 8.61107 12.4314 9.11327C12.4895 9.23139 12.5245 9.35956 12.5343 9.49085C12.6487 11.1156 12.889 14.6739 13.0263 16.5961C13.0498 16.9424 13.2102 17.265 13.4722 17.4926C13.7342 17.7202 14.0761 17.8341 14.4222 17.8089V17.8089L21.4817 17.3741C21.7969 17.3552 22.1058 17.4673 22.3355 17.684C22.5652 17.9006 22.6951 18.2026 22.6945 18.5183V18.5183C22.4084 22.7813 19.3456 26.3451 15.1741 27.2688C11.0026 28.1926 6.7216 26.2551 4.66248 22.5114C4.04779 21.434 3.65852 20.2428 3.51831 19.0103C3.45837 18.632 3.43538 18.2488 3.44966 17.8661C3.46181 13.3136 6.65905 9.39105 11.1156 8.4611" stroke="#2285DF" stroke-width="1.5" stroke-linecap="round" stroke-linejoin="round"/>
</svg>
