<svg width="30" height="30" viewBox="0 0 30 30" fill="none" xmlns="http://www.w3.org/2000/svg">
<path d="M14.365 3.48625H9.69125C5.8475 3.48625 3.4375 6.2075 3.4375 10.06V20.4525C3.4375 24.305 5.83625 27.0263 9.69125 27.0263H20.7212C24.5775 27.0263 26.9762 24.305 26.9762 20.4525V15.4175" stroke="#2285DF" stroke-width="1.5" stroke-linecap="round" stroke-linejoin="round"/>
<path fill-rule="evenodd" clip-rule="evenodd" d="M11.0343 13.6511L20.3755 4.30988C21.5393 3.14738 23.4255 3.14738 24.5893 4.30988L26.1105 5.83113C27.2743 6.99488 27.2743 8.88238 26.1105 10.0449L16.7243 19.4311C16.2155 19.9399 15.5255 20.2261 14.8055 20.2261H10.123L10.2405 15.5011C10.258 14.8061 10.5418 14.1436 11.0343 13.6511Z" stroke="#2285DF" stroke-width="1.5" stroke-linecap="round" stroke-linejoin="round"/>
<path d="M18.9561 5.75314L24.6636 11.4606" stroke="#2285DF" stroke-width="1.5" stroke-linecap="round" stroke-linejoin="round"/>
</svg>
