<svg width="24" height="24" viewBox="0 0 24 24" fill="none" xmlns="http://www.w3.org/2000/svg">
<path d="M16.02 10.9134C17.841 10.9134 19.317 9.4374 19.317 7.6164C19.317 5.7964 17.841 4.3194 16.02 4.3194" stroke="#2285DF" stroke-width="1.5" stroke-linecap="round" stroke-linejoin="round"/>
<path d="M17.5361 14.4964C18.0801 14.5334 18.6201 14.6114 19.1531 14.7294C19.8921 14.8764 20.7821 15.1794 21.0981 15.8424C21.3001 16.2674 21.3001 16.7624 21.0981 17.1874C20.7831 17.8504 19.8921 18.1534 19.1531 18.3054" stroke="#2285DF" stroke-width="1.5" stroke-linecap="round" stroke-linejoin="round"/>
<path fill-rule="evenodd" clip-rule="evenodd" d="M9.59137 15.2063C13.2814 15.2063 16.4334 15.7653 16.4334 17.9983C16.4334 20.2323 13.3014 20.8103 9.59137 20.8103C5.90137 20.8103 2.75037 20.2523 2.75037 18.0183C2.75037 15.7843 5.88137 15.2063 9.59137 15.2063Z" stroke="#2285DF" stroke-width="1.5" stroke-linecap="round" stroke-linejoin="round"/>
<path fill-rule="evenodd" clip-rule="evenodd" d="M9.5914 12.0188C7.1574 12.0188 5.2074 10.0678 5.2074 7.63382C5.2074 5.20082 7.1574 3.24982 9.5914 3.24982C12.0254 3.24982 13.9764 5.20082 13.9764 7.63382C13.9764 10.0678 12.0254 12.0188 9.5914 12.0188Z" stroke="#2285DF" stroke-width="1.5" stroke-linecap="round" stroke-linejoin="round"/>
</svg>
